<svg xmlns="http://www.w3.org/2000/svg" version="1.1" xmlns:xlink="http://www.w3.org/1999/xlink" xmlns:svgjs="http://svgjs.dev/svgjs" width="1000" height="999" viewBox="0 0 1000 999"><g transform="matrix(1,0,0,1,-0.215743440233382,-0.21552769679306039)"><svg viewBox="0 0 343 343" data-background-color="#ffffff" preserveAspectRatio="xMidYMid meet" height="999" width="1000" xmlns="http://www.w3.org/2000/svg" xmlns:xlink="http://www.w3.org/1999/xlink"><g id="tight-bounds" transform="matrix(1,0,0,1,0.0740000000000407,0.07400000000001228)"><svg viewBox="0 0 342.85155851775386 342.85155851775386" height="342.85155851775386" width="342.85155851775386"><g><svg></svg></g><g><svg viewBox="0 0 342.85155851775386 342.85155851775386" height="342.85155851775386" width="342.85155851775386"><g><path d="M0 171.426c0-94.676 76.75-171.426 171.426-171.426 94.676 0 171.426 76.75 171.426 171.426 0 94.676-76.75 171.426-171.426 171.426-94.676 0-171.426-76.75-171.426-171.426zM171.426 330.803c88.022 0 159.378-71.356 159.377-159.377 0-88.022-71.356-159.378-159.377-159.378-88.022 0-159.378 71.356-159.378 159.378 0 88.022 71.356 159.378 159.378 159.377z" data-fill-palette-color="tertiary" fill="#ca3433" stroke="transparent"></path><ellipse rx="164.56874808852186" ry="164.56874808852186" cx="171.42577925887693" cy="171.42577925887693" fill="#ca3433" stroke="transparent" stroke-width="0" fill-opacity="1" data-fill-palette-color="tertiary"></ellipse></g><g transform="matrix(1,0,0,1,64.84655864529837,104.6261269024791)"><svg viewBox="0 0 213.1584412271571 133.59930471279566" height="133.59930471279566" width="213.1584412271571"><g><svg viewBox="0 0 213.1584412271571 133.59930471279566" height="133.59930471279566" width="213.1584412271571"><g><svg viewBox="0 0 213.1584412271571 133.59930471279566" height="133.59930471279566" width="213.1584412271571"><g><svg viewBox="0 0 213.1584412271571 133.59930471279566" height="133.59930471279566" width="213.1584412271571"><g id="textblocktransform"><svg viewBox="0 0 213.1584412271571 133.59930471279566" height="133.59930471279566" width="213.1584412271571" id="textblock"><g><svg viewBox="0 0 213.1584412271571 133.59930471279566" height="133.59930471279566" width="213.1584412271571"><g transform="matrix(1,0,0,1,0,0)"><svg width="213.1584412271571" viewBox="5.699999809265137 -35.29999923706055 56.79999923706055 35.599998474121094" height="133.59930471279566" data-palette-color="#ffffff"><path d="M5.7 0L5.7-35 9.4-35 9.4-3.2 29-3.2 29 0 5.7 0ZM49.65 0.3Q44.45 0.3 40.27-2 36.1-4.3 33.72-8.38 31.35-12.45 31.35-17.5L31.35-17.5Q31.35-22.55 33.72-26.63 36.1-30.7 40.3-33 44.5-35.3 49.7-35.3L49.7-35.3Q53.6-35.3 56.9-34 60.2-32.7 62.5-30.2L62.5-30.2 60.15-27.85Q56.05-32 49.8-32L49.8-32Q45.65-32 42.25-30.1 38.85-28.2 36.92-24.9 35-21.6 35-17.5L35-17.5Q35-13.4 36.92-10.1 38.85-6.8 42.25-4.9 45.65-3 49.8-3L49.8-3Q56.1-3 60.15-7.2L60.15-7.2 62.5-4.85Q60.2-2.35 56.87-1.03 53.55 0.3 49.65 0.3L49.65 0.3Z" opacity="1" transform="matrix(1,0,0,1,0,0)" fill="#ffffff" class="undefined-text-0" data-fill-palette-color="quaternary" id="text-0"></path></svg></g></svg></g></svg></g></svg></g><g></g></svg></g></svg></g></svg></g></svg></g><defs></defs></svg><rect width="342.85155851775386" height="342.85155851775386" fill="none" stroke="none" visibility="hidden"></rect></g></svg></g></svg>